<svg width="1440" height="1024" viewBox="0 0 1440 1024" fill="none" xmlns="http://www.w3.org/2000/svg">
<g clip-path="url(#clip0_1208_8081)">
<rect width="1440" height="1024" fill="#2A8C5E"/>
<g opacity="0.1">
<path d="M175.102 614.937C175.102 612.685 175.507 610.434 175.732 608.227" stroke="#263238" stroke-miterlimit="10"/>
<path d="M177.26 594.852C197.146 436.002 274.232 289.84 394.093 183.717C513.955 77.5938 668.378 18.7813 828.467 18.2844C988.557 17.7876 1143.34 75.6405 1263.86 181.018C1384.38 286.395 1462.37 432.075 1483.24 590.799" stroke="#263238" stroke-miterlimit="10" stroke-dasharray="2.98 2.98"/>
<path d="M264.18 158.429L205.906 340.141L436.705 375.087L476.334 207.336C476.334 207.336 336.369 198.014 264.18 158.429Z" fill="white" stroke="#263238" stroke-linecap="round" stroke-linejoin="round"/>
<path d="M504.266 41.9265C504.266 41.9265 613.743 53.5903 692.957 0C692.957 0 790.771 76.8728 828.059 83.898C828.059 83.898 769.83 146.945 709.26 165.409C709.125 165.409 560.018 97.8585 504.266 41.9265Z" fill="white" stroke="#263238" stroke-linecap="round" stroke-linejoin="round"/>
<path d="M504.266 41.9267C520.338 29.7313 538.725 20.9362 558.306 16.0773C560.306 49.4605 573.507 81.1934 595.774 106.145C595.774 106.145 528.089 69.6225 504.266 41.9267Z" fill="#263238" stroke="#263238" stroke-linecap="round" stroke-linejoin="round"/>
<path d="M936.575 118.439C936.575 118.439 932.702 130.103 955.985 149.513C966.568 158.519 990.436 161.852 990.436 161.852L1053.03 83.4929C1053.03 83.4929 950.311 97.4534 936.575 118.439Z" fill="#263238" stroke="#263238" stroke-linecap="round" stroke-linejoin="round"/>
<path d="M936.582 118.439C971.013 106.567 1007.31 101.043 1043.72 102.137C1061.07 102.982 1078.08 107.342 1093.7 114.951C1109.32 122.56 1123.23 133.261 1134.6 146.405L1202.15 62.5074C1202.15 62.5074 1143.74 8.96211 1078.44 11.2588C1013.14 13.5556 941.085 99.7954 936.582 118.439Z" fill="white" stroke="#263238" stroke-linecap="round" stroke-linejoin="round"/>
<path d="M1329.06 163.248C1329.06 163.248 1287.13 273.535 1195.53 289.072C1195.53 289.072 1287.13 397.784 1338.38 410.213C1338.38 410.213 1442.45 363.603 1470.42 313.931C1470.42 313.931 1378.78 261.106 1329.06 163.248Z" fill="white" stroke="#263238" stroke-linecap="round" stroke-linejoin="round"/>
<path d="M329.389 725L370.1 552.475H96.8348L91.0254 725H329.389Z" fill="#263238" stroke="#263238" stroke-linecap="round" stroke-linejoin="round"/>
<path d="M127.51 488.572L126.654 686.721L331.108 707.482L346.509 496.813L127.51 488.572Z" fill="white" stroke="#263238" stroke-linecap="round" stroke-linejoin="round"/>
<path d="M60 521.492L91.0283 725H329.392L313.901 540.856H186.005L174.341 517.619L60 521.492Z" fill="#B3EBC3" stroke="#263238" stroke-linecap="round" stroke-linejoin="round"/>
<path d="M1355.89 725L1315.18 552.475H1588.45L1594.26 725H1355.89Z" fill="#263238" stroke="#263238" stroke-linecap="round" stroke-linejoin="round"/>
<path d="M1557.78 488.572L1558.63 686.721L1354.18 707.482L1338.78 496.813L1557.78 488.572Z" fill="white" stroke="#263238" stroke-linecap="round" stroke-linejoin="round"/>
<path d="M1625.29 521.492L1594.26 725H1355.9L1371.39 540.856H1499.33L1510.95 517.619L1625.29 521.492Z" fill="#B3EBC3" stroke="#263238" stroke-linecap="round" stroke-linejoin="round"/>
</g>
<g opacity="0.1">
<path d="M93.2607 1282.85C113.147 1124 190.233 977.84 310.094 871.717C429.956 765.594 584.379 706.781 744.468 706.284C904.558 705.788 1059.34 763.64 1179.86 869.018C1300.38 974.395 1378.37 1120.08 1399.24 1278.8" stroke="#263238" stroke-miterlimit="10" stroke-dasharray="2.98 2.98"/>
<path d="M180.18 846.429L121.906 1028.14L352.705 1063.09L392.334 895.336C392.334 895.336 252.369 886.014 180.18 846.429Z" fill="white" stroke="#263238" stroke-linecap="round" stroke-linejoin="round"/>
<path d="M420.266 729.927C420.266 729.927 529.743 741.59 608.957 688C608.957 688 706.771 764.873 744.059 771.898C744.059 771.898 685.83 834.945 625.26 853.409C625.125 853.409 476.018 785.859 420.266 729.927Z" fill="white" stroke="#263238" stroke-linecap="round" stroke-linejoin="round"/>
<path d="M420.266 729.927C436.338 717.731 454.725 708.936 474.306 704.077C476.306 737.46 489.507 769.193 511.774 794.145C511.774 794.145 444.089 757.622 420.266 729.927Z" fill="#263238" stroke="#263238" stroke-linecap="round" stroke-linejoin="round"/>
<path d="M852.575 806.439C852.575 806.439 848.702 818.103 871.985 837.513C882.568 846.519 906.436 849.852 906.436 849.852L969.033 771.493C969.033 771.493 866.311 785.453 852.575 806.439Z" fill="#263238" stroke="#263238" stroke-linecap="round" stroke-linejoin="round"/>
<path d="M852.582 806.439C887.013 794.567 923.313 789.043 959.718 790.137C977.073 790.982 994.076 795.342 1009.7 802.951C1025.32 810.56 1039.23 821.261 1050.6 834.405L1118.15 750.507C1118.15 750.507 1059.74 696.962 994.439 699.259C929.14 701.556 857.085 787.795 852.582 806.439Z" fill="white" stroke="#263238" stroke-linecap="round" stroke-linejoin="round"/>
<path d="M1245.06 851.248C1245.06 851.248 1203.13 961.535 1111.53 977.072C1111.53 977.072 1203.13 1085.78 1254.38 1098.21C1254.38 1098.21 1358.45 1051.6 1386.42 1001.93C1386.42 1001.93 1294.78 949.106 1245.06 851.248Z" fill="white" stroke="#263238" stroke-linecap="round" stroke-linejoin="round"/>
</g>
</g>
<defs>
<clipPath id="clip0_1208_8081">
<rect width="1440" height="1024" fill="white"/>
</clipPath>
</defs>
</svg>
