<svg width="200" height="200" viewBox="0 0 200 200" fill="none" xmlns="http://www.w3.org/2000/svg">
<path d="M200 121.481V49.3576C200.002 49.1445 199.984 48.93 199.955 48.7156C199.95 48.6744 199.944 48.6332 199.937 48.5925C199.905 48.3957 199.863 48.1997 199.804 48.0047C199.803 48.0006 199.801 47.9966 199.8 47.9925C199.756 47.8518 199.706 47.7124 199.648 47.5739C199.632 47.5341 199.611 47.4979 199.593 47.4586C199.571 47.4097 199.548 47.3617 199.524 47.3133C199.447 47.1581 199.363 47.0083 199.271 46.8658C199.258 46.8459 199.247 46.8255 199.234 46.8061C199.122 46.6391 199 46.483 198.869 46.335C198.845 46.3074 198.819 46.2816 198.795 46.2545C198.674 46.1237 198.547 46.0006 198.413 45.8866C198.391 45.8681 198.372 45.8491 198.35 45.831C198.198 45.7065 198.038 45.5938 197.873 45.4907C197.835 45.4667 197.796 45.4445 197.756 45.4219C197.603 45.3323 197.445 45.2509 197.282 45.1798C197.263 45.1717 197.247 45.1599 197.227 45.1518L90.4502 0.351311C90.4403 0.347239 90.4303 0.344524 90.4204 0.340451C90.3787 0.323257 90.3353 0.310135 90.2928 0.294297C89.638 0.0476911 88.9606 -0.0405442 88.3036 0.0178268C88.291 0.0187318 88.2787 0.0182793 88.2661 0.0196368C87.967 0.048596 87.6729 0.106967 87.3873 0.193392C87.3701 0.198822 87.353 0.206062 87.3358 0.211944C87.2109 0.251311 87.0869 0.295202 86.9661 0.344976C86.9606 0.347239 86.9548 0.348596 86.9489 0.351311L55.6276 13.4925C53.9471 14.1979 52.8534 15.8423 52.8534 17.6653C52.8534 19.4884 53.9471 21.1328 55.6276 21.8382L84.1747 33.816V73.7056L2.77467 107.858C2.71766 107.882 2.66517 107.911 2.60997 107.937C2.55612 107.963 2.50227 107.987 2.44933 108.015C2.32083 108.081 2.1973 108.153 2.07784 108.23C2.05884 108.242 2.03893 108.25 2.01992 108.263C2.0154 108.266 2.01178 108.27 2.00725 108.273C1.85703 108.373 1.71449 108.481 1.57965 108.597C1.56562 108.609 1.55341 108.622 1.53983 108.634C1.42445 108.736 1.31494 108.843 1.21132 108.954C1.18056 108.988 1.1516 109.021 1.12173 109.055C1.03712 109.152 0.957026 109.253 0.88146 109.356C0.852953 109.394 0.824447 109.432 0.797297 109.472C0.715849 109.591 0.640736 109.713 0.571053 109.838C0.558383 109.861 0.543451 109.883 0.531234 109.906C0.452501 110.054 0.38327 110.207 0.321279 110.362C0.304537 110.404 0.291415 110.447 0.27603 110.49C0.233496 110.608 0.195035 110.726 0.162003 110.847C0.147976 110.9 0.134854 110.952 0.122637 111.005C0.0936773 111.129 0.0701479 111.254 0.0515959 111.381C0.045261 111.423 0.0375687 111.465 0.0325913 111.507C0.0117769 111.685 -0.000440345 111.864 1.21435e-05 112.045V150.674C1.21435e-05 152.497 1.09368 154.142 2.77422 154.847L109.524 199.636C109.805 199.757 110.102 199.85 110.41 199.911C110.438 199.917 110.467 199.919 110.495 199.924C110.613 199.945 110.73 199.965 110.85 199.977C111 199.992 111.151 200 111.301 200C111.452 200 111.602 199.992 111.753 199.977C111.872 199.965 111.99 199.945 112.107 199.924C112.136 199.919 112.165 199.917 112.193 199.911C112.501 199.85 112.798 199.757 113.079 199.636L197.226 164.331C198.907 163.626 200 161.981 200 160.158V121.529C200 121.513 200 121.497 200 121.481ZM149.425 135.929L120.85 123.94C118.544 122.969 115.893 124.057 114.927 126.361C113.96 128.666 115.044 131.317 117.348 132.285L137.73 140.836L111.302 151.924L62.272 131.353L88.6991 120.264L104.773 127.009C107.078 127.976 109.73 126.891 110.696 124.587C111.663 122.282 110.579 119.631 108.275 118.663L93.224 112.348V83.5201L183.78 121.515L149.425 135.929ZM84.1742 112.349L50.576 126.445L16.2213 112.031L84.1742 83.5201V112.349ZM88.6991 9.43095L183.78 49.3242L164.154 57.559L90.4796 26.6468C90.4661 26.6409 90.452 26.6355 90.438 26.6296L69.0733 17.6653L88.6991 9.43095ZM162.371 66.6246C162.939 66.8685 163.546 66.9911 164.154 66.9911C164.749 66.9911 165.344 66.8739 165.905 66.6391L190.951 56.13V114.708L93.224 73.7052V37.6129L162.371 66.6246ZM9.05024 118.836L106.777 159.84V188.669L9.05024 147.665V118.836ZM190.951 157.149L115.827 188.669V159.84L190.951 128.32V157.149Z" fill="#047844"/>
</svg>

