<svg width="236" height="235" viewBox="0 0 236 235" fill="none" xmlns="http://www.w3.org/2000/svg">
<path d="M90.1945 51.92C89.2086 52.0385 88.2116 51.8204 87.3652 51.3011C86.5189 50.7819 85.8727 49.9919 85.5316 49.0594L68.1961 6.37855C67.9763 5.83759 67.8653 5.25864 67.8692 4.67476C67.8732 4.09088 67.9922 3.51351 68.2193 2.9756C68.4464 2.43769 68.7772 1.94979 69.1929 1.53974C69.6086 1.12968 70.101 0.805507 70.642 0.585743C71.1829 0.365979 71.7618 0.254912 72.3457 0.258892C72.9296 0.262872 73.507 0.381825 74.0449 0.608943C74.5828 0.836061 75.0707 1.1669 75.4808 1.58258C75.8908 1.99826 76.215 2.49065 76.4348 3.0316L93.7703 45.7124C94.1885 46.795 94.1685 47.998 93.7146 49.0661C93.2606 50.1342 92.4084 50.9835 91.3387 51.4337C90.9835 51.6516 90.5979 51.8155 90.1945 51.92Z" fill="#FF9500"/>
<path d="M231.339 169.95C230.562 170.046 229.773 169.937 229.05 169.636L185.626 151.299C184.605 150.796 183.814 149.922 183.416 148.856C183.018 147.789 183.043 146.611 183.485 145.562C183.928 144.513 184.754 143.673 185.795 143.213C186.837 142.753 188.014 142.709 189.087 143.089L232.512 161.369C233.437 161.738 234.213 162.406 234.714 163.266C235.216 164.127 235.415 165.131 235.28 166.118C235.145 167.105 234.684 168.019 233.97 168.713C233.256 169.408 232.329 169.843 231.339 169.95Z" fill="#FF9500"/>
<path d="M47.8283 92.4555C47.0511 92.5493 46.2628 92.4409 45.5398 92.1408L3.88882 74.5764C2.80389 74.1174 1.94572 73.2462 1.50313 72.1545C1.06054 71.0628 1.06979 69.8399 1.52879 68.755C1.9878 67.6701 2.85899 66.8119 3.95071 66.3693C5.04244 65.9268 6.26529 65.936 7.35022 66.395L48.8867 83.9307C49.8122 84.2997 50.5875 84.9678 51.0893 85.8285C51.591 86.6892 51.7903 87.6931 51.6554 88.6802C51.5205 89.6673 51.0591 90.5809 50.3448 91.2754C49.6305 91.97 48.7044 92.4055 47.7139 92.5127L47.8283 92.4555Z" fill="#FF9500"/>
<path d="M188 94.3144C186.868 94.5932 185.671 94.4148 184.67 93.8178C183.668 93.2208 182.942 92.2533 182.649 91.1248C182.355 89.9962 182.518 88.7975 183.102 87.7883C183.686 86.779 184.644 86.0404 185.769 85.7324L229.88 67.9392C230.421 67.7195 231 67.6084 231.584 67.6124C232.168 67.6164 232.745 67.7353 233.283 67.9624C233.821 68.1896 234.309 68.5204 234.719 68.9361C235.129 69.3518 235.453 69.8441 235.673 70.3851C235.893 70.9261 236.004 71.505 236 72.0889C235.996 72.6728 235.877 73.2501 235.65 73.788C235.422 74.326 235.092 74.8139 234.676 75.2239C234.26 75.634 233.768 75.9581 233.227 76.1779L189.23 94.0283C188.838 94.1881 188.423 94.2847 188 94.3144Z" fill="#FF9500"/>
<path d="M5.63365 168.377C4.55253 168.518 3.45692 168.259 2.55367 167.649C1.65042 167.038 1.00201 166.118 0.730933 165.061C0.459856 164.005 0.584835 162.886 1.08227 161.916C1.57971 160.946 2.41519 160.191 3.43095 159.795L44.7959 143.003C45.3368 142.783 45.9158 142.672 46.4997 142.676C47.0836 142.68 47.6609 142.799 48.1988 143.026C48.7367 143.253 49.2247 143.584 49.6347 144C50.0448 144.415 50.3689 144.908 50.5887 145.449C50.8084 145.99 50.9195 146.568 50.9155 147.152C50.9115 147.736 50.7926 148.314 50.5655 148.852C50.3384 149.389 50.0075 149.877 49.5918 150.287C49.1762 150.697 48.6838 151.022 48.1428 151.241L6.7493 168.062C6.39465 168.22 6.01883 168.326 5.63365 168.377Z" fill="#FF9500"/>
<path d="M148.036 53.2357C147.259 53.342 146.468 53.2332 145.748 52.9211C144.684 52.4665 143.841 51.6117 143.403 50.5411C142.964 49.4706 142.963 48.2704 143.402 47.1998L161.71 3.86104C161.866 3.2429 162.154 2.66563 162.553 2.16865C162.952 1.67166 163.454 1.26663 164.024 0.981149C164.594 0.695667 165.219 0.536453 165.856 0.514378C166.493 0.492303 167.128 0.607887 167.716 0.853232C168.304 1.09858 168.833 1.46792 169.266 1.93608C169.698 2.40424 170.025 2.96021 170.223 3.56608C170.422 4.17195 170.487 4.81346 170.415 5.44689C170.343 6.08032 170.135 6.69077 169.806 7.2366L151.498 50.5753C151.204 51.2829 150.73 51.9011 150.122 52.3679C149.515 52.8348 148.796 53.134 148.036 53.2357Z" fill="#FF9500"/>
<path d="M71.2857 234.973C70.506 235.059 69.7173 234.94 68.9972 234.629C67.933 234.174 67.089 233.321 66.6453 232.252C66.2017 231.183 66.1936 229.983 66.6228 228.908L84.1872 187.114C84.6901 186.093 85.5642 185.302 86.6307 184.905C87.6972 184.507 88.8755 184.531 89.9244 184.974C90.9733 185.416 91.8135 186.242 92.2732 187.283C92.7329 188.325 92.7773 189.502 92.3973 190.575L74.8329 232.169C74.5399 232.907 74.0577 233.554 73.435 234.046C72.8123 234.538 72.071 234.858 71.2857 234.973Z" fill="#FF9500"/>
<path d="M170.436 97.0611C164.501 83.1818 153.338 72.1983 139.365 66.4881C125.392 60.7779 109.732 60.8004 95.775 66.5509C81.8182 72.3013 70.6876 83.317 64.7925 97.2133C58.8975 111.11 58.7124 126.769 64.2772 140.8C73.0308 162.055 95.7443 169.407 113.509 181.908C118.973 185.77 126.639 205.422 126.639 205.422L171.666 186.885C171.666 186.885 163.284 167.519 164.428 160.939C168.204 139.713 179.189 118.459 170.436 97.0611Z" fill="#FF9500"/>
<path opacity="0.5" d="M170.436 97.0611C164.501 83.1818 153.338 72.1983 139.365 66.4881C125.392 60.7779 109.732 60.8004 95.775 66.5509C81.8182 72.3013 70.6876 83.317 64.7925 97.2133C58.8975 111.11 58.7124 126.769 64.2772 140.8C73.0308 162.055 95.7443 169.407 113.509 181.908C118.973 185.77 126.639 205.422 126.639 205.422L171.666 186.885C171.666 186.885 163.284 167.519 164.428 160.939C168.204 139.713 179.189 118.459 170.436 97.0611Z" fill="white"/>
<path d="M165.315 208.111L146.091 216.035C142.665 217.436 138.824 217.421 135.408 215.995C131.993 214.569 129.282 211.847 127.869 208.426L172.896 189.975C174.279 193.386 174.258 197.207 172.839 200.603C171.419 204 168.715 206.698 165.315 208.111Z" fill="#263238"/>
<path d="M161.224 225.619C158.43 226.747 155.304 226.728 152.525 225.566C149.745 224.403 147.536 222.192 146.377 219.411L167.431 210.829C168.542 213.616 168.514 216.727 167.353 219.494C166.191 222.26 163.991 224.459 161.224 225.619Z" fill="#263238"/>
<path opacity="0.5" d="M161.224 225.619C158.43 226.747 155.304 226.728 152.525 225.566C149.745 224.403 147.536 222.192 146.377 219.411L167.431 210.829C168.542 213.616 168.514 216.727 167.353 219.494C166.191 222.26 163.991 224.459 161.224 225.619Z" fill="white"/>
<g opacity="0.7">
<path d="M165.315 208.111L146.091 216.035C142.665 217.436 138.824 217.421 135.408 215.995C131.993 214.569 129.282 211.847 127.869 208.426L172.896 189.975C174.279 193.386 174.258 197.207 172.839 200.603C171.419 204 168.715 206.698 165.315 208.111Z" fill="white"/>
</g>
<path opacity="0.3" d="M160.137 89.8517C173.725 123.321 168.175 169.778 142.315 180.305C116.455 190.832 78.2367 156.877 66.4795 127.87C59.2135 110.019 74.3177 87.0196 100.178 76.378C126.038 65.7364 152.9 71.944 160.137 89.8517Z" fill="white"/>
<path opacity="0.4" d="M156.876 129.101C159.301 135.066 159.902 141.617 158.604 147.924C157.305 154.232 154.165 160.012 149.581 164.535C144.996 169.057 139.174 172.118 132.849 173.331C126.525 174.544 119.983 173.854 114.051 171.348C108.119 168.842 103.063 164.634 99.5234 159.254C95.9836 153.875 94.1188 147.566 94.1649 141.127C94.2109 134.687 96.1658 128.406 99.7821 123.078C103.398 117.75 108.514 113.614 114.481 111.193C118.44 109.583 122.678 108.769 126.952 108.798C131.226 108.826 135.453 109.697 139.39 111.36C143.327 113.023 146.898 115.446 149.899 118.49C152.899 121.534 155.27 125.14 156.876 129.101Z" fill="white"/>
<path opacity="0.4" d="M150.783 140.457C155.532 152.157 147.493 159.566 135.793 164.315C124.093 169.064 113.166 169.35 108.417 157.65C103.668 145.95 111.764 138.712 123.464 133.964C135.164 129.215 146.006 128.757 150.783 140.457Z" fill="white"/>
<path d="M115.453 144.586L112.782 145.896L139.441 200.241L142.112 198.931L115.453 144.586Z" fill="#FF9500"/>
<path d="M139.942 134.857L137.113 135.78L155.889 193.326L158.717 192.403L139.942 134.857Z" fill="#FF9500"/>
<path d="M135.478 162.655L118.715 155.561L119.859 152.843L133.905 158.765L139.741 144.977L142.458 146.121L135.478 162.655Z" fill="#FF9500"/>
</svg>
