<svg width="526" height="498" viewBox="0 0 526 498" fill="none" xmlns="http://www.w3.org/2000/svg">
<path d="M209.968 66.3218H189.318V70.8207V97.3033V101.816H233.115V70.8207H211.43L209.968 66.3218Z" fill="#92E3A9"/>
<path d="M209.968 133.862H189.318V138.361V164.844V169.357H233.115V138.361H211.43L209.968 133.862Z" fill="#92E3A9"/>
<path d="M209.968 201.403H189.318V205.902V232.384V236.897H233.115V205.902H211.43L209.968 201.403Z" fill="#92E3A9"/>
<path d="M209.968 268.943H189.318V273.442V299.925V304.438H233.115V273.442H211.43L209.968 268.943Z" fill="#92E3A9"/>
<path d="M209.968 336.484H189.318V340.997V367.466V371.979H233.115V340.997H211.43L209.968 336.484Z" fill="#92E3A9"/>
<path d="M342.355 66.3218H321.705V70.8207V97.3033V101.816H365.516V70.8207H343.831L342.355 66.3218Z" fill="#92E3A9"/>
<path d="M428.258 70.8207L426.782 66.3218H406.133V70.8207V97.3033V101.816H449.93V70.8207H428.258Z" fill="#92E3A9"/>
<path d="M342.355 133.862H321.705V138.361V164.844V169.357H365.516V138.361H343.831L342.355 133.862Z" fill="#92E3A9"/>
<path d="M426.782 201.403H406.133V205.902V232.384V236.897H449.93V205.902H428.258L426.782 201.403Z" fill="#92E3A9"/>
<path d="M426.782 133.862H406.133V138.361V164.844V169.357H449.93V138.361H428.258L426.782 133.862Z" fill="#92E3A9"/>
<path d="M342.355 201.403H321.705V205.902V232.384V236.897H365.516V205.902H343.831L342.355 201.403Z" fill="#92E3A9"/>
<path d="M342.355 268.943H321.705V273.442V299.925V304.438H365.516V273.442H343.831L342.355 268.943Z" fill="#92E3A9"/>
<path d="M426.782 268.943H406.133V273.442V299.925V304.438H449.93V273.442H428.258L426.782 268.943Z" fill="#92E3A9"/>
<path d="M342.355 336.484H321.705V340.997V367.466V371.979H365.516V340.997H343.831L342.355 336.484Z" fill="#92E3A9"/>
<path d="M426.782 336.484H406.133V340.997V367.466V371.979H449.93V340.997H428.258L426.782 336.484Z" fill="#92E3A9"/>
<g opacity="0.5">
<path d="M209.968 66.3218H189.318V70.8207V97.3033V101.816H233.115V70.8207H211.43L209.968 66.3218Z" fill="white"/>
<path d="M209.968 133.862H189.318V138.361V164.844V169.357H233.115V138.361H211.43L209.968 133.862Z" fill="white"/>
<path d="M209.968 201.403H189.318V205.902V232.384V236.897H233.115V205.902H211.43L209.968 201.403Z" fill="white"/>
<path d="M209.968 268.943H189.318V273.442V299.925V304.438H233.115V273.442H211.43L209.968 268.943Z" fill="white"/>
<path d="M209.968 336.484H189.318V340.997V367.466V371.979H233.115V340.997H211.43L209.968 336.484Z" fill="white"/>
<path d="M342.355 66.3218H321.705V70.8207V97.3033V101.816H365.516V70.8207H343.831L342.355 66.3218Z" fill="white"/>
<path d="M428.258 70.8207L426.782 66.3218H406.133V70.8207V97.3033V101.816H449.93V70.8207H428.258Z" fill="white"/>
<path d="M342.355 133.862H321.705V138.361V164.844V169.357H365.516V138.361H343.831L342.355 133.862Z" fill="white"/>
<path d="M426.782 201.403H406.133V205.902V232.384V236.897H449.93V205.902H428.258L426.782 201.403Z" fill="white"/>
<path d="M426.782 133.862H406.133V138.361V164.844V169.357H449.93V138.361H428.258L426.782 133.862Z" fill="white"/>
<path d="M342.355 201.403H321.705V205.902V232.384V236.897H365.516V205.902H343.831L342.355 201.403Z" fill="white"/>
<path d="M342.355 268.943H321.705V273.442V299.925V304.438H365.516V273.442H343.831L342.355 268.943Z" fill="white"/>
<path d="M426.782 268.943H406.133V273.442V299.925V304.438H449.93V273.442H428.258L426.782 268.943Z" fill="white"/>
<path d="M342.355 336.484H321.705V340.997V367.466V371.979H365.516V340.997H343.831L342.355 336.484Z" fill="white"/>
<path d="M426.782 336.484H406.133V340.997V367.466V371.979H449.93V340.997H428.258L426.782 336.484Z" fill="white"/>
</g>
<path d="M213.059 497.381C252.642 497.381 284.73 490.709 284.73 482.479C284.73 474.249 252.642 467.577 213.059 467.577C173.477 467.577 141.389 474.249 141.389 482.479C141.389 490.709 173.477 497.381 213.059 497.381Z" fill="#92E3A9"/>
<path opacity="0.5" d="M213.059 497.381C252.642 497.381 284.73 490.709 284.73 482.479C284.73 474.249 252.642 467.577 213.059 467.577C173.477 467.577 141.389 474.249 141.389 482.479C141.389 490.709 173.477 497.381 213.059 497.381Z" fill="white"/>
<path d="M266.169 166.05C266.169 166.05 265.885 158.457 265.885 150.566C265.885 142.676 269.972 140.93 272.598 140.93C273.872 140.891 275.147 140.986 276.401 141.214C276.401 141.214 277.82 128.654 287.216 126.61C296.611 124.566 303.579 132.159 306.787 129.534C309.994 126.908 299.194 127.192 303.863 123.403C308.532 119.613 321.986 119.301 323.448 133.337C324.91 147.373 315.259 153.788 310.59 154.952C305.921 156.116 299.478 147.643 293.347 147.941C287.216 148.239 288.096 155.25 284.292 158.173C280.489 161.097 277.565 159.593 277.565 163.425C277.565 167.256 275.819 169.272 271.136 169.556C266.452 169.839 266.169 166.05 266.169 166.05Z" fill="#263238" stroke="#263238" stroke-linecap="round" stroke-linejoin="round"/>
<path d="M309.465 143.456C309.465 143.456 314.021 145.557 319.967 141.71C325.914 137.864 322.053 129.122 321.017 128.767" stroke="white" stroke-linecap="round" stroke-linejoin="round"/>
<path d="M282.885 141.356C282.885 141.356 284.985 132.258 292.323 132.613C299.66 132.968 298.624 139.61 304.925 141.71" stroke="white" stroke-linecap="round" stroke-linejoin="round"/>
<path d="M279.052 147.061C279.052 147.061 274.794 142.803 271.019 143.811C267.244 144.819 268.919 151.503 269.274 153.604C269.628 155.704 266.818 161.651 266.818 161.651" stroke="white" stroke-linecap="round" stroke-linejoin="round"/>
<path d="M180.377 171.032L190.936 208.726L207.839 208.016L197.975 169.981L180.377 171.032Z" fill="#263238" stroke="#263238" stroke-linecap="round" stroke-linejoin="round"/>
<path d="M208.194 241.482L203.61 243.937C203.61 243.937 197.933 226.324 195.52 219.64C193.107 212.955 192.341 210.131 192.341 210.131H192.455C193.66 209.434 194.611 208.369 195.165 207.091C195.719 205.813 195.849 204.392 195.534 203.035L194.725 199.444C194.848 199.772 195.046 200.067 195.304 200.304C195.561 200.542 195.87 200.716 196.207 200.813C196.543 200.909 196.898 200.926 197.242 200.861C197.586 200.795 197.91 200.651 198.188 200.438C199.366 199.671 198.117 191.922 196.698 189.084C195.279 186.246 190.581 188.332 189.176 189.084C188.142 189.662 187.187 190.373 186.338 191.199L185.288 186.941C185.288 186.941 190.567 186.586 191.632 186.586C192.696 186.586 196.556 183.067 194.796 182.712C193.037 182.357 183.173 182.357 180.704 184.472C178.234 186.586 182.463 195.045 183.173 196.805C183.883 198.564 187.431 216.532 188.85 221.456C190.269 226.381 193.789 262.614 195.946 265.835C198.103 269.057 213.771 254.155 213.771 254.155L208.194 241.482Z" fill="white" stroke="#263238" stroke-linecap="round" stroke-linejoin="round"/>
<path d="M187.541 193.739C187.541 193.739 192.494 189.481 196.95 190.531" stroke="#263238" stroke-linecap="round" stroke-linejoin="round"/>
<path d="M189.033 197.926C190.098 196.839 191.367 195.974 192.768 195.379C194.168 194.785 195.672 194.474 197.194 194.463" stroke="#263238" stroke-linecap="round" stroke-linejoin="round"/>
<path d="M245.716 196.152C245.716 196.152 239.188 202.382 236.364 207.662C233.539 212.941 206.787 241.482 206.787 241.482L214.536 267.893L233.554 251.686C233.554 251.686 244.113 231.263 246.937 218.235C249.761 205.206 252.259 195.911 245.716 196.152Z" fill="#92E3A9" stroke="#263238" stroke-linecap="round" stroke-linejoin="round"/>
<path d="M304.161 203.163C304.161 203.163 283.412 201.403 271.732 199.657C260.052 197.912 247.179 194.69 245.718 196.152C244.256 197.613 235.088 243.511 226.147 261.89C214.31 286.229 206.164 299.13 206.164 299.13C214.372 295.977 223.292 295.157 231.937 296.76C246.541 299.386 269.277 314.912 269.277 314.912C269.277 314.912 280.205 291.395 291.885 267.737C303.565 244.079 309.71 208.712 309.71 206.711C309.71 204.71 305.907 202.865 304.161 203.163Z" fill="#92E3A9" stroke="#263238" stroke-linecap="round" stroke-linejoin="round"/>
<path d="M295.276 202.354C288.18 201.687 278.472 200.665 271.731 199.657C270.738 199.515 269.758 199.345 268.765 199.189C267.365 203.106 266.492 207.191 266.168 211.337C265.586 219.853 270.553 229.163 274.357 229.163C278.16 229.163 289.84 213.395 292.466 209.01C293.765 206.962 294.715 204.713 295.276 202.354Z" fill="white" stroke="#263238" stroke-linecap="round" stroke-linejoin="round"/>
<path d="M276.101 183.294C276.101 183.294 273.191 198.195 270.85 204.326C268.508 210.457 271.133 221.272 274.057 221.57C276.981 221.868 288.675 206.668 288.675 206.668L292.762 189.723C292.762 189.723 277.861 185.635 276.101 183.294Z" fill="white" stroke="#263238" stroke-linecap="round" stroke-linejoin="round"/>
<path d="M306.812 203.787C308.37 204.032 309.85 204.637 311.133 205.553C312.417 206.469 313.469 207.672 314.206 209.066C317.045 214.005 345.202 260.84 345.202 260.84L326.17 265.778L299.759 242.177C299.759 242.177 293.429 234.073 300.468 219.64" fill="#92E3A9"/>
<path d="M306.812 203.787C308.37 204.032 309.85 204.637 311.133 205.553C312.417 206.469 313.469 207.672 314.206 209.066C317.045 214.005 345.202 260.84 345.202 260.84L326.17 265.778L299.759 242.177C299.759 242.177 293.429 234.073 300.468 219.64" stroke="#263238" stroke-linecap="round" stroke-linejoin="round"/>
<path d="M251.862 248.166C251.862 248.166 245.178 254.155 244.766 255.56C244.355 256.965 248.286 262.656 249.35 262.954C250.415 263.252 250.77 260.116 250.401 258.697C250.032 257.278 249.35 255.163 249.35 255.163L253.211 250.593C253.211 250.593 254.687 248.876 251.862 248.166Z" fill="white" stroke="#263238" stroke-linecap="round" stroke-linejoin="round"/>
<path d="M337.794 249.571C333.532 248.002 329.005 247.284 324.467 247.456C317.073 247.811 301.575 251.714 291.712 252.04C281.848 252.367 282.203 252.75 276.923 251.331C271.644 249.912 260.73 241.481 258.261 241.481C255.791 241.481 248.397 253.8 249.461 255.205C250.526 256.61 259.311 263.309 261.78 263.721C264.25 264.132 269.529 260.882 269.529 260.882C269.529 260.882 295.941 264.757 308.274 266.176C320.607 267.595 335.75 269.341 341.725 265.466C347.7 261.592 345.897 253.091 337.794 249.571Z" fill="white" stroke="#263238" stroke-linecap="round" stroke-linejoin="round"/>
<path d="M258.205 245.697L251.506 256.27" stroke="#263238" stroke-linecap="round" stroke-linejoin="round"/>
<path d="M263.13 249.571L255.381 260.144" stroke="#263238" stroke-linecap="round" stroke-linejoin="round"/>
<path d="M266.662 254.155L259.963 262.259" stroke="#263238" stroke-linecap="round" stroke-linejoin="round"/>
<path d="M269.473 260.84L268.764 258.384L265.244 260.499" stroke="#263238" stroke-linecap="round" stroke-linejoin="round"/>
<path d="M311.17 164.886C311.17 164.886 314.094 162.843 314.676 168.392C315.258 173.941 313.257 177.744 311.752 178.624C310.248 179.504 308.545 178.028 308.545 178.028L311.17 164.886Z" fill="white" stroke="#263238" stroke-linecap="round" stroke-linejoin="round"/>
<path d="M269.12 165.766C269.12 165.766 264.451 159.621 261.825 164.886C259.2 170.152 261.229 176.865 264.749 179.49C268.268 182.116 271.76 178.326 271.76 178.326C271.76 178.326 279.353 193.81 285.782 194.392C292.211 194.974 304.231 190.305 308.574 181.25C312.917 172.195 312.364 157.577 312.945 152.028C313.527 146.479 307.396 139.468 296 139.468C292.788 139.39 289.599 140.031 286.667 141.345C283.735 142.659 281.134 144.612 279.055 147.061C279.487 147.286 279.863 147.607 280.151 148C280.44 148.393 280.634 148.847 280.719 149.328C280.805 149.808 280.778 150.301 280.642 150.769C280.506 151.238 280.264 151.668 279.934 152.028C277.593 155.25 274.683 157.294 273.803 159.337C272.924 161.381 273.803 163.425 272.625 165.184C271.448 166.944 269.12 165.766 269.12 165.766Z" fill="white" stroke="#263238" stroke-linecap="round" stroke-linejoin="round"/>
<path d="M295.587 156.442C295.332 158.074 294.509 159.281 293.757 159.195C293.004 159.11 292.579 157.648 292.834 156.016C293.09 154.384 293.913 153.178 294.665 153.263C295.417 153.348 295.843 154.796 295.587 156.442Z" fill="#263238"/>
<path d="M307.269 159.607C307.014 161.253 306.19 162.445 305.438 162.36C304.686 162.275 304.26 160.827 304.516 159.181C304.771 157.535 305.594 156.343 306.347 156.428C307.099 156.513 307.525 158.017 307.269 159.607Z" fill="#263238"/>
<path d="M289.809 149.587C289.809 149.587 293.456 145.329 298.168 147.657" stroke="#263238" stroke-linecap="round" stroke-linejoin="round"/>
<path d="M305.252 151.092C305.252 151.092 310.602 149.161 311.681 156.456" stroke="#263238" stroke-linecap="round" stroke-linejoin="round"/>
<path d="M302.894 156.655C302.894 156.655 300.964 160.302 301.39 161.367C301.815 162.431 307.18 163.723 305.463 165.227C303.745 166.731 299.459 168.449 298.168 167.583" stroke="#263238" stroke-linecap="round" stroke-linejoin="round"/>
<path d="M286.816 168.221C286.816 168.221 288.321 173.373 295.176 174.438" stroke="#263238" stroke-linecap="round" stroke-linejoin="round"/>
<path d="M208.688 296.76C208.688 296.76 200.854 304.58 189.6 316.331C178.345 328.082 149.464 367.721 152.402 381.005C155.34 394.289 227.777 414.286 227.777 414.286L235.597 408.907C235.597 408.907 192.041 376.605 189.103 369.254C186.165 361.902 223.86 337.932 223.86 337.932L265.954 310.966C265.954 310.966 247.106 279.133 208.688 296.76Z" fill="#263238" stroke="#263238" stroke-linecap="round" stroke-linejoin="round"/>
<path d="M261.541 277.175C261.541 277.175 270.837 292.786 269.858 311.435C268.879 330.083 261.541 346.674 243.432 346.191C225.323 345.709 226.799 318.29 232.674 304.58C238.55 290.87 239.515 272.775 261.541 277.175Z" fill="#263238" stroke="#263238" stroke-linecap="round" stroke-linejoin="round"/>
<path d="M235.057 286.471C235.057 286.471 224.782 333.944 219.885 343.24C214.989 352.535 206.176 375.044 206.176 375.044L216.948 377.982C216.948 377.982 232.119 356.935 250.228 334.909C268.338 312.882 265.4 283.519 261.483 277.161C257.566 270.803 242.451 271.299 235.057 286.471Z" fill="#263238" stroke="#263238" stroke-linecap="round" stroke-linejoin="round"/>
<path d="M264.235 295.852C264.235 295.852 256.16 329.615 245.146 343.566" stroke="white" stroke-linecap="round" stroke-linejoin="round"/>
<path d="M227.775 414.215C227.775 414.215 229.194 422.049 226.356 427.427C223.517 432.806 216.563 444.075 221.46 444.557C226.356 445.04 233.211 437.703 238.107 431.784C243.003 425.866 243.486 420.516 246.92 416.173C250.355 411.83 235.652 408.836 235.652 408.836L229.237 412.228L227.775 414.215Z" fill="#92E3A9" stroke="#263238" stroke-linecap="round" stroke-linejoin="round"/>
<path d="M246.864 416.173C248.028 414.669 247.077 413.335 245.317 412.228C241.913 419.658 237.757 426.72 232.913 433.303C227.79 439.959 223.064 441.818 219.729 442.031C219.629 443.45 220.055 444.43 221.403 444.557C226.3 445.054 233.154 437.703 238.051 431.784C242.947 425.866 243.43 420.573 246.864 416.173Z" fill="white" stroke="#263238" stroke-linecap="round" stroke-linejoin="round"/>
<path d="M206.232 375.058C200.187 374.265 194.362 372.268 189.103 369.183C181.283 364.301 179.807 364.301 179.807 373.1C179.807 381.899 190.578 386.313 196.454 390.726C202.33 395.14 205.75 397.581 210.15 397.085C214.549 396.588 217.004 377.996 217.004 377.996C217.004 377.996 214.563 373.1 206.232 375.058Z" fill="#92E3A9" stroke="#263238" stroke-linecap="round" stroke-linejoin="round"/>
<path d="M179.807 373.1C179.807 381.913 190.578 386.313 196.454 390.726C202.33 395.14 205.693 397.525 210.036 397.085C199.775 390.556 198.682 380.054 189.102 369.183C181.283 364.301 179.807 364.301 179.807 373.1Z" fill="white" stroke="#263238" stroke-linecap="round" stroke-linejoin="round"/>
<path d="M203.55 385.83C201.025 381.023 198.121 376.424 194.865 372.078C192.863 371.306 190.934 370.356 189.103 369.24C181.283 364.357 179.807 364.357 179.807 373.157C179.807 381.956 190.578 386.37 196.454 390.783C202.33 395.197 205.75 397.638 210.15 397.141C211.228 397.028 212.179 395.822 212.988 394.076C210.891 393.511 208.951 392.474 207.315 391.045C205.679 389.616 204.392 387.832 203.55 385.83Z" stroke="#263238" stroke-linecap="round" stroke-linejoin="round"/>
<path d="M57.5273 220.136C57.5273 219.427 57.6551 218.717 57.726 218.022" stroke="#263238" stroke-miterlimit="10"/>
<path d="M58.208 213.807C64.475 163.746 88.7682 117.684 126.542 84.2397C164.316 50.7955 212.981 32.2611 263.433 32.1045C313.884 31.9479 362.664 50.18 400.644 83.389C438.625 116.598 463.204 162.509 469.781 212.529" stroke="#263238" stroke-miterlimit="10" stroke-dasharray="2.98 2.98"/>
<path d="M470.08 214.644C470.165 215.339 470.25 216.063 470.321 216.759" stroke="#263238" stroke-miterlimit="10"/>
<path d="M85.6 76.2704L67.2354 133.536L139.97 144.549L152.459 91.6831C152.459 91.6831 108.35 88.7453 85.6 76.2704Z" fill="white" stroke="#263238" stroke-linecap="round" stroke-linejoin="round"/>
<path d="M161.262 39.5552C161.262 39.5552 195.763 43.231 220.727 26.3423C220.727 26.3423 251.552 50.5683 263.303 52.7823C263.303 52.7823 244.953 72.6514 225.865 78.4702C225.822 78.4702 178.832 57.1819 161.262 39.5552Z" fill="white" stroke="#263238" stroke-linecap="round" stroke-linejoin="round"/>
<path d="M161.262 39.5553C166.327 35.7119 172.121 32.9402 178.292 31.4089C178.922 41.9295 183.083 51.93 190.1 59.7933C190.1 59.7933 168.769 48.2834 161.262 39.5553Z" fill="#263238" stroke="#263238" stroke-linecap="round" stroke-linejoin="round"/>
<path d="M297.502 63.6678C297.502 63.6678 296.281 67.3436 303.619 73.4604C306.954 76.2988 314.476 77.349 314.476 77.349L334.203 52.6547C334.203 52.6547 301.83 57.0542 297.502 63.6678Z" fill="#263238" stroke="#263238" stroke-linecap="round" stroke-linejoin="round"/>
<path d="M297.504 63.6678C308.355 59.9262 319.795 58.1854 331.267 58.5302C336.736 58.7967 342.095 60.1705 347.018 62.5685C351.941 64.9665 356.326 68.3388 359.907 72.4812L381.195 46.0411C381.195 46.0411 362.788 29.1666 342.209 29.8904C321.631 30.6142 298.923 57.7923 297.504 63.6678Z" fill="white" stroke="#263238" stroke-linecap="round" stroke-linejoin="round"/>
<path d="M421.191 77.7889C421.191 77.7889 407.978 112.546 379.111 117.442C379.111 117.442 407.978 151.702 424.129 155.619C424.129 155.619 456.927 140.93 465.74 125.276C465.74 125.276 436.859 108.629 421.191 77.7889Z" fill="white" stroke="#263238" stroke-linecap="round" stroke-linejoin="round"/>
<path d="M106.15 254.822L118.98 200.452H32.862L31.0312 254.822H106.15Z" fill="#263238" stroke="#263238" stroke-linecap="round" stroke-linejoin="round"/>
<path d="M42.5294 180.313L42.2598 242.759L106.692 249.301L111.546 182.91L42.5294 180.313Z" fill="white" stroke="#263238" stroke-linecap="round" stroke-linejoin="round"/>
<path d="M21.2539 190.688L31.0323 254.822H106.152L101.269 196.79H60.9636L57.2878 189.467L21.2539 190.688Z" fill="#92E3A9" stroke="#263238" stroke-linecap="round" stroke-linejoin="round"/>
<path d="M429.648 254.822L416.818 200.452H502.936L504.767 254.822H429.648Z" fill="#263238" stroke="#263238" stroke-linecap="round" stroke-linejoin="round"/>
<path d="M493.27 180.313L493.54 242.759L429.108 249.301L424.254 182.91L493.27 180.313Z" fill="white" stroke="#263238" stroke-linecap="round" stroke-linejoin="round"/>
<path d="M514.548 190.688L504.77 254.822H429.65L434.533 196.79H474.852L478.514 189.467L514.548 190.688Z" fill="#92E3A9" stroke="#263238" stroke-linecap="round" stroke-linejoin="round"/>
</svg>
