<svg width="195" height="80" viewBox="0 0 195 80" fill="none" xmlns="http://www.w3.org/2000/svg">
<path d="M188.562 29.4792C187.477 30.5647 186.178 31.1075 184.666 31.1075C183.154 31.1075 181.836 30.5647 180.711 29.4792C179.626 28.3549 179.083 27.0367 179.083 25.5247C179.083 24.0127 179.626 22.7139 180.711 21.6283C181.836 20.5428 183.154 20 184.666 20C186.178 20 187.477 20.5428 188.562 21.6283C189.686 22.7139 190.249 24.0127 190.249 25.5247C190.249 27.0367 189.686 28.3549 188.562 29.4792ZM179.839 62.569V33.4918H189.493V62.569H179.839Z" fill="#047844"/>
<path d="M164.619 62.5691V20.1163H174.273V62.5691H164.619Z" fill="#047844"/>
<path d="M161.828 62.569H151.011L142.753 50.1822V62.569H133.1V21.861H142.753V45.6461L150.255 33.4918H161.421L151.651 48.0304L161.828 62.569Z" fill="#047844"/>
<path d="M117.85 33.4919H127.504V62.5691H117.85V59.894C115.873 62.2202 113.12 63.3833 109.592 63.3833C105.715 63.3833 102.458 61.9294 99.8221 59.0217C97.2246 56.0752 95.9258 52.4115 95.9258 48.0305C95.9258 43.6495 97.2246 40.0052 99.8221 37.0975C102.458 34.151 105.715 32.6777 109.592 32.6777C113.12 32.6777 115.873 33.8408 117.85 36.167V33.4919ZM107.324 52.6247C108.448 53.7878 109.922 54.3693 111.744 54.3693C113.566 54.3693 115.039 53.7878 116.164 52.6247C117.288 51.4616 117.85 49.9302 117.85 48.0305C117.85 46.1308 117.288 44.5994 116.164 43.4363C115.039 42.2732 113.566 41.6917 111.744 41.6917C109.922 41.6917 108.448 42.2732 107.324 43.4363C106.2 44.5994 105.638 46.1308 105.638 48.0305C105.638 49.9302 106.2 51.4616 107.324 52.6247Z" fill="#047844"/>
<rect x="58.0781" y="16" width="11" height="47" fill="#047844"/>
<rect x="71.0781" y="16" width="17" height="10" fill="#047844"/>
<rect x="48.0781" y="16" width="8" height="10" fill="#047844"/>
<rect x="72.0781" y="33" width="10" height="30" fill="#FF9500"/>
<path d="M92.7059 32.1015L93.0781 32V42.5C90.2137 42.5 87.484 43.7157 85.5678 45.8448L84.0781 47.5V37.5C86.3607 34.8913 89.3617 33.0136 92.7059 32.1015Z" fill="#047844"/>
<path d="M31.8795 19.1775C34.1347 19.1775 36.3905 19.1762 38.6456 19.1789C40.3414 19.1809 41.4879 20.2717 41.4879 21.8905C41.4893 35.0807 41.4893 48.2702 41.4879 61.4604C41.4879 63.0663 40.3571 64.1612 38.6798 64.1619C28.0675 64.1659 17.4553 64.1673 6.84296 64.1632C5.13077 64.1632 4.01212 63.082 4.01212 61.4509C4.00998 48.2832 4.0171 35.1161 4 21.9491C3.99787 20.5163 4.96262 19.4705 6.15182 19.2293C6.43469 19.1721 6.71827 19.1782 7.00186 19.1782C9.28121 19.1762 11.5606 19.1775 13.8399 19.1782C13.8456 19.3935 13.8449 19.6095 13.8577 19.8241C13.9069 20.6607 14.147 20.8897 15.0142 20.8897C20.2341 20.8924 25.4547 20.891 30.6747 20.891C30.7694 20.891 30.8649 20.8937 30.9597 20.8876C31.5347 20.8522 31.7641 20.6376 31.8104 20.0912C31.8361 19.7866 31.8567 19.4821 31.8803 19.1775H31.8795ZM22.931 60.9379C23.6834 60.1707 24.4273 59.4226 25.1576 58.663C25.3286 58.4852 25.4291 58.445 25.6243 58.6507C26.2862 59.3484 26.9831 60.0154 27.6407 60.7158C27.8324 60.9202 27.9193 60.8977 28.0932 60.7158C28.7651 60.012 29.4577 59.3252 30.1303 58.6221C30.2899 58.4552 30.3726 58.4579 30.5343 58.6276C31.2062 59.3314 31.9031 60.0133 32.5771 60.7158C32.7474 60.8929 32.8457 60.9004 33.0189 60.7185C33.6908 60.0147 34.3826 59.3279 35.0581 58.6269C35.207 58.4722 35.2961 58.4361 35.4642 58.6173C35.9523 59.1433 36.4603 59.6529 36.9684 60.1619C37.1992 60.3935 37.4066 60.6511 37.7208 60.8711C37.7208 60.7096 37.7208 60.5979 37.7208 60.4862C37.7208 52.8466 37.7208 45.2071 37.7208 37.5675C37.7208 34.0029 37.7008 30.4389 37.7308 26.8743C37.7436 25.3536 36.4846 24.284 35.1322 24.2874C27.0002 24.3044 18.8689 24.2955 10.7369 24.2969C10.536 24.2969 10.3357 24.2949 10.1362 24.3432C8.87009 24.6471 8.1369 25.5771 8.1369 26.8982C8.13619 38.0908 8.13619 49.2834 8.13619 60.476C8.13619 60.5945 8.13619 60.7131 8.13619 60.8316C8.1711 60.8486 8.2053 60.8657 8.24022 60.8827C8.31646 60.7846 8.38415 60.679 8.47036 60.5904C9.10949 59.9343 9.75575 59.285 10.3906 58.6255C10.536 58.4743 10.6265 58.4599 10.7811 58.6201C11.4565 59.3211 12.1512 60.0052 12.8232 60.709C12.992 60.8861 13.0789 60.9386 13.2756 60.7294C13.9347 60.0297 14.6251 59.3572 15.2885 58.6609C15.4666 58.4743 15.5721 58.4572 15.758 58.6528C16.4292 59.3579 17.1218 60.0433 17.7951 60.7458C17.9519 60.9093 18.0395 60.912 18.1991 60.7444C18.8625 60.0481 19.5472 59.3709 20.212 58.6752C20.3944 58.4845 20.5027 58.4545 20.7044 58.6671C21.4297 59.4308 22.1778 60.1748 22.9303 60.9399L22.931 60.9379Z" fill="#047844"/>
<path d="M31.8792 19.1775C31.8564 19.4821 31.835 19.7873 31.8094 20.0912C31.7631 20.6376 31.5336 20.8522 30.9586 20.8876C30.8638 20.8938 30.7691 20.891 30.6736 20.891C25.4537 20.891 20.233 20.8924 15.0131 20.8897C14.1453 20.8897 13.9058 20.6608 13.8567 19.8241C13.8439 19.6095 13.8446 19.3935 13.8389 19.1782C13.8866 18.7054 13.8175 18.2291 13.9165 17.7556C14.136 16.7057 15.0886 15.9304 16.2059 15.9229C16.7517 15.9188 17.2974 15.9093 17.8425 15.9263C18.1318 15.9352 18.2501 15.8861 18.3057 15.5625C18.6277 13.6882 20.253 12.2336 22.2409 12.034C24.2851 11.8282 25.8726 12.5559 26.9464 14.2496C27.2264 14.6911 27.3661 15.1864 27.4373 15.6926C27.4658 15.8943 27.5556 15.9263 27.7352 15.9243C28.281 15.9175 28.826 15.9222 29.3718 15.9215C30.8161 15.9215 31.8364 16.8801 31.8614 18.2605C31.8671 18.5664 31.8728 18.8723 31.8778 19.1782L31.8792 19.1775ZM22.8352 15.9209C23.594 15.9209 24.3521 15.9222 25.111 15.9209C25.5093 15.9202 25.5157 15.9093 25.391 15.5346C25.1601 14.8417 24.6656 14.3777 23.9859 14.0881C22.5373 13.4715 20.8479 14.1372 20.3257 15.5216C20.1881 15.8875 20.2131 15.9209 20.6299 15.9215C21.3645 15.9222 22.0998 15.9215 22.8344 15.9215L22.8352 15.9209Z" fill="#FF9500"/>
<path d="M35.4073 49.3488C35.4073 48.6269 35.2236 47.9157 34.8722 47.2767C34.5208 46.6377 34.0121 46.09 33.39 45.6809C32.7679 45.2717 32.0511 45.0134 31.3013 44.9281C30.5516 44.8429 29.7914 44.9332 29.0863 45.1915C28.3812 45.4497 27.7523 45.868 27.254 46.4104C26.7556 46.9527 26.4027 47.6029 26.2256 48.3047C26.0485 49.0065 26.0526 49.739 26.2375 50.439C26.4224 51.139 26.7825 51.7855 27.2869 52.3227L28.7478 51.0688C28.4561 50.7581 28.2478 50.3842 28.1408 49.9793C28.0339 49.5745 28.0315 49.1509 28.134 48.745C28.2364 48.3391 28.4405 47.9631 28.7287 47.6494C29.0169 47.3357 29.3806 47.0938 29.7884 46.9445C30.1962 46.7951 30.6359 46.7428 31.0695 46.7921C31.5031 46.8415 31.9177 46.9909 32.2774 47.2275C32.6372 47.4641 32.9314 47.7809 33.1347 48.1504C33.3379 48.52 33.4441 48.9313 33.4441 49.3488H35.4073Z" fill="#FF9500"/>
<path d="M30.7515 53.8007C31.6207 53.8007 32.4725 53.568 33.2105 53.1291C33.9486 52.6901 34.5434 52.0624 34.9276 51.3169L33.1667 50.4871C32.9445 50.9182 32.6005 51.2812 32.1736 51.5351C31.7468 51.789 31.2542 51.9235 30.7515 51.9235V53.8007Z" fill="#047844"/>
<path d="M22.1148 29.3594C25.5826 29.3594 29.051 29.3621 32.5187 29.3533C32.7919 29.3526 32.8933 29.4136 32.8805 29.7046C32.8568 30.2342 32.8602 30.7665 32.8805 31.2962C32.8899 31.5566 32.8007 31.6162 32.5539 31.6156C30.1106 31.6074 27.6667 31.6115 25.2235 31.6115C20.7083 31.6115 16.193 31.6074 11.6778 31.6169C11.3614 31.6176 11.2417 31.5505 11.2619 31.2127C11.2917 30.7062 11.2863 30.1962 11.264 29.689C11.2518 29.4102 11.3532 29.3546 11.6095 29.3553C15.1111 29.3628 18.6133 29.3607 22.1148 29.3607V29.3594Z" fill="#047844"/>
<path d="M19.3309 37.579C16.7686 37.579 14.2064 37.5729 11.6449 37.5865C11.3228 37.5879 11.2416 37.4987 11.2566 37.2043C11.2815 36.6954 11.2801 36.183 11.2566 35.6734C11.243 35.3907 11.3314 35.3116 11.6299 35.313C14.4529 35.3239 17.2759 35.3191 20.099 35.3191C22.436 35.3191 24.7724 35.3253 27.1087 35.313C27.4123 35.3116 27.4899 35.3982 27.4785 35.6761C27.4565 36.1973 27.4586 36.7199 27.4792 37.2411C27.4899 37.5075 27.4094 37.5872 27.1237 37.5865C24.5259 37.5763 21.9287 37.5804 19.3309 37.5804V37.579Z" fill="#047844"/>
<path d="M17.0908 41.175C18.8949 41.175 20.6997 41.1805 22.5038 41.1696C22.7867 41.1675 22.9042 41.2227 22.8893 41.5198C22.8636 42.0519 22.8722 42.5867 22.8857 43.1195C22.8914 43.3477 22.8287 43.4363 22.5694 43.4363C18.9013 43.4295 15.2339 43.4302 11.5659 43.4363C11.3386 43.4363 11.2517 43.3804 11.2581 43.1502C11.2738 42.6174 11.2795 42.0825 11.2552 41.5504C11.2424 41.2588 11.3194 41.1648 11.6428 41.1675C13.4591 41.1839 15.2753 41.175 17.0915 41.175H17.0908Z" fill="#047844"/>
<path fill-rule="evenodd" clip-rule="evenodd" d="M31.1458 27.995L35.7227 30.5605L31.1458 33.126L31.1458 31.0049L31.1458 30.1161L31.1458 27.995Z" fill="#047844"/>
</svg>
