<svg width="384" height="158" viewBox="0 0 384 158" fill="none" xmlns="http://www.w3.org/2000/svg">
<g clip-path="url(#clip0_49_35868)">
<path d="M117.537 34.9656V113.284C117.537 116.907 118.364 119.604 120.018 121.415C121.672 123.207 123.818 124.093 126.456 124.093C129.094 124.093 131.141 123.207 132.776 121.435C134.41 119.663 135.236 116.946 135.236 113.284V34.9656H117.537Z" fill="#007845"/>
<path d="M112.989 34.9656V49.6134H103.46C100.428 49.6134 98.1836 48.944 96.707 47.6052C95.2304 46.2665 94.502 44.5142 94.502 42.3092C94.502 40.1042 95.2698 38.2535 96.8054 36.9344C98.3411 35.6153 100.546 34.9656 103.46 34.9656H112.989Z" fill="#007845"/>
<path d="M167.622 42.3092C167.622 44.5142 166.874 46.2665 165.358 47.6052C163.842 48.944 161.578 49.6134 158.546 49.6134H139.173V34.9656H158.546C161.617 34.9656 163.901 35.635 165.378 36.9935C166.874 38.3519 167.622 40.1239 167.622 42.3092Z" fill="#007845"/>
<path d="M158.507 67.9034C158.37 64.5565 157.72 62.0168 156.519 60.3039C155.338 58.5911 153.369 57.7445 150.672 57.7445C145.356 57.7445 142.718 61.4064 142.718 68.7303V114.17C142.718 117.438 143.466 119.919 144.982 121.592C146.498 123.266 148.427 124.093 150.79 124.093C153.152 124.093 155.161 123.266 156.696 121.612C158.251 119.958 159.039 117.477 159.039 114.17V106.57L158.507 67.9034Z" fill="#F3931A"/>
<path d="M189.988 67.1159C189.988 69.1241 189.299 70.7582 187.94 72.0576C186.562 73.357 185.066 74.0067 183.471 74.0067C182.881 74.0067 181.443 73.6326 179.14 72.8845C176.856 72.156 174.828 71.7819 173.076 71.7819C170.694 71.7819 168.725 72.412 167.209 73.672C165.811 74.8336 165.063 76.2905 163.685 79.2633C162.956 80.8187 162.031 83.0434 161.184 85.8194C161.106 79.854 161.027 73.8885 160.948 67.9034C161.598 66.7812 162.248 65.7575 162.897 64.8321C164.236 62.9618 165.575 61.4458 166.953 60.3039C169.001 58.5911 171.737 57.7445 175.163 57.7445C178.589 57.7445 181.916 58.5911 185.145 60.3039C188.373 62.0168 189.988 64.3006 189.988 67.1159Z" fill="#007845"/>
<path d="M235.979 114.898C232.041 117.97 228.222 120.273 224.54 121.809C220.858 123.344 216.724 124.112 212.137 124.112C207.943 124.112 204.281 123.285 201.111 121.632C197.942 119.978 195.5 117.733 193.788 114.898C192.075 112.063 191.208 108.992 191.208 105.684C191.208 101.215 192.626 97.4155 195.461 94.2655C198.296 91.1154 202.175 89.0088 207.116 87.926C208.16 87.6897 210.719 87.1582 214.834 86.3116C218.929 85.4847 222.453 84.7169 225.387 84.0081C228.32 83.319 231.49 82.4725 234.916 81.4684C234.719 77.1567 233.852 74.0067 232.317 71.9985C230.781 69.9904 227.611 68.9863 222.788 68.9863C218.634 68.9863 215.523 69.5572 213.436 70.7188C211.349 71.8804 209.558 73.6129 208.061 75.9164C206.565 78.2199 205.502 79.7555 204.892 80.484C204.281 81.2321 202.942 81.5865 200.915 81.5865C199.084 81.5865 197.489 80.9959 196.17 79.8146C194.851 78.6333 194.162 77.137 194.162 75.3061C194.162 72.4316 195.185 69.6557 197.213 66.9387C199.241 64.2218 202.411 61.9971 206.723 60.2449C211.034 58.4926 216.389 57.6067 222.808 57.6067C229.974 57.6067 235.624 58.4533 239.719 60.1464C243.814 61.8396 246.728 64.5171 248.421 68.1791C250.115 71.841 250.961 76.7039 250.961 82.7678C250.961 86.5872 250.961 89.8357 250.922 92.5133C250.902 95.1908 250.863 98.144 250.823 101.412C250.823 104.483 251.335 107.673 252.339 111C253.363 114.327 253.855 116.473 253.855 117.418C253.855 119.092 253.068 120.608 251.493 121.986C249.918 123.364 248.126 124.053 246.138 124.053C244.464 124.053 242.81 123.266 241.176 121.691C239.542 120.116 237.81 117.832 235.979 114.839V114.898ZM234.916 91.2729C232.533 92.1589 229.049 93.0842 224.481 94.0489C219.913 95.0333 216.763 95.7421 215.011 96.1949C213.259 96.6477 211.585 97.5534 209.991 98.8921C208.396 100.231 207.608 102.082 207.608 104.483C207.608 106.885 208.554 109.051 210.424 110.784C212.294 112.516 214.755 113.382 217.767 113.382C220.996 113.382 223.969 112.674 226.706 111.256C229.442 109.839 231.431 108.027 232.71 105.783C234.187 103.322 234.916 99.2465 234.916 93.5961V91.2729Z" fill="#007845"/>
<path d="M299.688 116.631L285.277 92.9661L276.437 101.333V114.308C276.437 117.458 275.61 119.879 273.956 121.573C272.303 123.266 270.393 124.112 268.247 124.112C265.727 124.112 263.758 123.266 262.321 121.592C260.884 119.919 260.175 117.438 260.175 114.17V44.593C260.175 40.9704 260.864 38.2141 262.262 36.3044C263.66 34.4144 265.648 33.4694 268.247 33.4694C270.846 33.4694 272.755 34.3356 274.232 36.0485C275.709 37.7613 276.437 40.301 276.437 43.648V83.2206L294.786 63.9659C297.05 61.5836 298.783 59.9495 299.984 59.0636C301.185 58.1973 302.642 57.7445 304.354 57.7445C306.382 57.7445 308.075 58.3942 309.434 59.6936C310.792 60.993 311.462 62.6074 311.462 64.5762C311.462 66.9584 309.257 70.1478 304.827 74.1445L296.164 82.0984L312.899 108.401C314.139 110.35 315.025 111.847 315.557 112.851C316.088 113.855 316.364 114.839 316.364 115.745C316.364 118.344 315.655 120.372 314.238 121.868C312.82 123.364 310.95 124.112 308.646 124.112C306.658 124.112 305.122 123.581 304.039 122.498C302.957 121.415 301.5 119.466 299.669 116.631H299.688Z" fill="#007845"/>
<path d="M317.742 114.17V43.392C317.742 40.1238 318.47 37.6432 319.927 35.9697C321.384 34.2962 323.353 33.4496 325.814 33.4496C328.275 33.4496 330.283 34.2765 331.799 35.9303C333.315 37.5841 334.063 40.0648 334.063 43.3723V114.15C334.063 117.458 333.295 119.938 331.759 121.592C330.224 123.246 328.235 124.073 325.814 124.073C323.392 124.073 321.482 123.207 319.986 121.494C318.49 119.781 317.742 117.32 317.742 114.13V114.17Z" fill="#007845"/>
<path d="M350.719 50.145C352.905 50.145 354.795 49.4362 356.389 48.0187C357.984 46.6011 358.772 44.6324 358.772 42.132C358.772 39.6316 357.945 37.5644 356.311 36.206C354.677 34.8475 352.806 34.1781 350.7 34.1781C348.593 34.1781 346.585 34.9262 344.931 36.4225C343.277 37.9188 342.45 39.8285 342.45 42.132C342.45 44.6914 343.258 46.6602 344.872 48.058C346.486 49.4559 348.436 50.145 350.7 50.145H350.719Z" fill="#F3931A"/>
<path d="M350.542 57.7444C348.16 57.7444 346.21 58.5713 344.714 60.2054C343.218 61.8395 342.47 64.2611 342.47 67.4899V114.189C342.47 117.379 343.218 119.84 344.714 121.553C346.21 123.266 348.16 124.132 350.542 124.132C352.924 124.132 354.912 123.285 356.468 121.612C358.023 119.938 358.791 117.458 358.791 114.189V67.0174C358.791 64.1036 358.023 61.8395 356.468 60.2054C354.912 58.5713 352.944 57.7444 350.542 57.7444Z" fill="#007845"/>
</g>
<path d="M62.7638 37.7565C67.2037 37.7565 71.645 37.7538 76.0848 37.7591C79.4235 37.7632 81.6806 39.9107 81.6806 43.0977C81.6834 69.0664 81.6834 95.0338 81.6806 121.002C81.6806 124.164 79.4544 126.32 76.1522 126.321C55.2589 126.329 34.3655 126.332 13.4722 126.324C10.1013 126.324 7.89885 124.195 7.89885 120.984C7.89465 95.0593 7.90867 69.1362 7.87501 43.2131C7.8708 40.3922 9.77019 38.3332 12.1115 37.8584C12.6684 37.7457 13.2267 37.7578 13.785 37.7578C18.2726 37.7538 22.7601 37.7565 27.2477 37.7578C27.2589 38.1817 27.2575 38.6069 27.2828 39.0294C27.3796 40.6766 27.8523 41.1273 29.5595 41.1273C39.8364 41.1327 50.1148 41.13 60.3917 41.13C60.5783 41.13 60.7663 41.1353 60.9528 41.1233C62.0849 41.0535 62.5366 40.631 62.6278 39.5552C62.6783 38.9556 62.719 38.356 62.7652 37.7565H62.7638ZM45.1461 119.974C46.6274 118.463 48.0919 116.99 49.5298 115.495C49.8665 115.145 50.0643 115.066 50.4486 115.471C51.7518 116.844 53.1238 118.157 54.4186 119.536C54.7959 119.939 54.9671 119.895 55.3094 119.536C56.6322 118.151 57.9957 116.799 59.32 115.414C59.6342 115.086 59.7969 115.091 60.1153 115.425C61.4382 116.811 62.8101 118.153 64.1372 119.536C64.4725 119.885 64.666 119.9 65.0069 119.542C66.3298 118.156 67.6919 116.804 69.0217 115.424C69.3149 115.119 69.4903 115.048 69.8213 115.405C70.7823 116.441 71.7825 117.444 72.7827 118.446C73.2372 118.902 73.6454 119.409 74.264 119.842C74.264 119.524 74.264 119.304 74.264 119.084C74.264 104.044 74.264 89.003 74.264 73.9624C74.264 66.9444 74.2247 59.9278 74.2836 52.9098C74.3089 49.9159 71.8301 47.8099 69.1676 47.8166C53.1575 47.8502 37.1487 47.8327 21.1385 47.8354C20.7429 47.8354 20.3487 47.8314 19.9559 47.9266C17.4632 48.5249 16.0197 50.3558 16.0197 52.9567C16.0183 74.9926 16.0183 97.0284 16.0183 119.064C16.0183 119.298 16.0183 119.531 16.0183 119.764C16.087 119.798 16.1543 119.831 16.2231 119.865C16.3732 119.672 16.5064 119.464 16.6762 119.29C17.9345 117.998 19.2068 116.72 20.4567 115.421C20.7429 115.123 20.9211 115.095 21.2255 115.41C22.5553 116.791 23.9231 118.137 25.2459 119.523C25.5784 119.872 25.7495 119.975 26.1367 119.563C27.4343 118.186 28.7936 116.862 30.0996 115.491C30.4503 115.123 30.6579 115.09 31.024 115.475C32.3455 116.863 33.709 118.212 35.0347 119.595C35.3433 119.917 35.5158 119.923 35.83 119.593C37.1361 118.222 38.4841 116.889 39.793 115.519C40.1521 115.143 40.3653 115.084 40.7623 115.503C42.1903 117.007 43.6633 118.471 45.1446 119.978L45.1461 119.974Z" fill="#047844"/>
<path d="M62.7641 37.7565C62.7192 38.356 62.6771 38.957 62.6266 39.5552C62.5355 40.631 62.0838 41.0535 60.9517 41.1233C60.7651 41.1353 60.5786 41.13 60.3906 41.13C50.1137 41.13 39.8353 41.1327 29.5584 41.1273C27.8498 41.1273 27.3784 40.6766 27.2817 39.0294C27.2564 38.6069 27.2578 38.1817 27.2466 37.7578C27.3406 36.8269 27.2045 35.8893 27.3995 34.957C27.8315 32.89 29.7071 31.3635 31.9067 31.3488C32.9812 31.3407 34.0558 31.322 35.1289 31.3555C35.6985 31.3729 35.9313 31.2764 36.0407 30.6392C36.6748 26.9491 39.8746 24.0853 43.7884 23.6923C47.8131 23.2872 50.9385 24.7198 53.0525 28.0544C53.6038 28.9236 53.8788 29.8988 54.0191 30.8954C54.0752 31.2925 54.2519 31.3555 54.6054 31.3515C55.68 31.3381 56.7531 31.3474 57.8277 31.3461C60.6711 31.3461 62.68 33.2334 62.729 35.951C62.7403 36.5533 62.7515 37.1555 62.7613 37.7578L62.7641 37.7565ZM44.9584 31.3448C46.4523 31.3448 47.9449 31.3474 49.4389 31.3448C50.2231 31.3434 50.2357 31.322 49.9902 30.5842C49.5357 29.2201 48.5622 28.3066 47.2239 27.7365C44.372 26.5226 41.0459 27.8331 40.0177 30.5587C39.7469 31.279 39.796 31.3448 40.6167 31.3461C42.063 31.3474 43.5107 31.3461 44.957 31.3461L44.9584 31.3448Z" fill="#FF9500"/>
<path d="M69.7085 97.1574C69.7085 95.736 69.3469 94.3359 68.655 93.0779C67.9631 91.8198 66.9616 90.7415 65.7369 89.936C64.5121 89.1305 63.1008 88.6218 61.6247 88.454C60.1486 88.2861 58.6519 88.464 57.2638 88.9724C55.8756 89.4808 54.6375 90.3044 53.6563 91.3722C52.6752 92.44 51.9803 93.72 51.6317 95.1017C51.283 96.4835 51.291 97.9256 51.6551 99.3037C52.0191 100.682 52.7282 101.955 53.7212 103.012L56.5973 100.544C56.023 99.9319 55.6129 99.1957 55.4024 98.3987C55.1919 97.6017 55.1872 96.7676 55.3889 95.9685C55.5905 95.1694 55.9924 94.4291 56.5598 93.8116C57.1273 93.194 57.8433 92.7177 58.6461 92.4237C59.449 92.1297 60.3146 92.0268 61.1683 92.1238C62.022 92.2209 62.8382 92.5151 63.5465 92.981C64.2548 93.4468 64.834 94.0704 65.2342 94.798C65.6344 95.5256 65.8434 96.3353 65.8434 97.1574H69.7085Z" fill="#FF9500"/>
<path d="M60.5422 105.922C62.2534 105.922 63.9305 105.464 65.3835 104.6C66.8366 103.736 68.0076 102.5 68.7641 101.032L65.2973 99.3983C64.8598 100.247 64.1825 100.962 63.3421 101.462C62.5018 101.962 61.5319 102.226 60.5422 102.226V105.922Z" fill="#047844"/>
<path d="M43.5402 57.8023C50.3675 57.8023 57.196 57.8077 64.0232 57.7903C64.5611 57.789 64.7608 57.9091 64.7355 58.4819C64.6889 59.5246 64.6955 60.5727 64.7355 61.6154C64.7541 62.1281 64.5784 62.2456 64.0924 62.2443C59.2822 62.2282 54.4707 62.2362 49.6605 62.2362C40.771 62.2362 31.8815 62.2282 22.992 62.2469C22.369 62.2483 22.1333 62.1161 22.1732 61.4512C22.2318 60.4539 22.2212 59.4498 22.1772 58.4512C22.1533 57.9024 22.353 57.793 22.8576 57.7943C29.7513 57.809 36.6465 57.805 43.5402 57.805V57.8023Z" fill="#047844"/>
<path d="M38.0576 73.9852C33.0131 73.9852 27.9686 73.9731 22.9256 73.9999C22.2915 74.0026 22.1316 73.8269 22.161 73.2474C22.2101 72.2455 22.2073 71.2367 22.161 70.2334C22.1344 69.6767 22.3083 69.5212 22.8961 69.5238C28.454 69.5453 34.0119 69.5359 39.5698 69.5359C44.171 69.5359 48.7708 69.548 53.3706 69.5238C53.9682 69.5212 54.1211 69.6915 54.0986 70.2388C54.0551 71.2649 54.0593 72.2937 54.1 73.3199C54.1211 73.8444 53.9625 74.0013 53.4 73.9999C48.2854 73.9798 43.1722 73.9879 38.0576 73.9879V73.9852Z" fill="#047844"/>
<path d="M33.6473 81.0648C37.1992 81.0648 40.7525 81.0755 44.3044 81.0541C44.8613 81.05 45.0928 81.1587 45.0633 81.7435C45.0128 82.7911 45.0296 83.8441 45.0563 84.893C45.0675 85.3424 44.9441 85.5168 44.4334 85.5168C37.2118 85.5033 29.9916 85.5047 22.77 85.5168C22.3225 85.5168 22.1514 85.4068 22.164 84.9534C22.1948 83.9045 22.2061 82.8515 22.1584 81.8039C22.1331 81.2298 22.2846 81.0447 22.9215 81.05C26.4972 81.0822 30.073 81.0648 33.6487 81.0648H33.6473Z" fill="#047844"/>
<path fill-rule="evenodd" clip-rule="evenodd" d="M61.3192 55.1163L70.3301 60.1672L61.3192 65.2181L61.3192 61.042L61.3192 59.2924L61.3192 55.1163Z" fill="#047844"/>
<defs>
<clipPath id="clip0_49_35868">
<rect width="264.29" height="90.6232" fill="white" transform="translate(94.502 33.4694)"/>
</clipPath>
</defs>
</svg>
